<svg t="1625748082270" class="icon" viewBox="0 0 1024 1024" version="1.1" xmlns="http://www.w3.org/2000/svg" p-id="1964" width="512" height="512"><path d="M140.9 918.3C54.7 830.1 1.8 711.3 1.8 580.5c0-271.9 228.7-492.4 510.9-492.4s510.9 220.4 510.9 492.4c0 131-53.1 250.1-139.6 338.3l-743.1-0.5z" fill="#29ABE2" p-id="1965"></path><path d="M211.6 918.9C141.3 847.3 98.2 750.8 98.2 644.5c0-220.3 185.3-398.9 413.8-398.9s414 178.6 414 398.9c0 106.2-43.1 202.9-113.4 274.3l-601 0.1z" fill="#FFFFFF" p-id="1966"></path><path d="M381.5 274.2a65.8 103.6 0 1 0 131.6 0 65.8 103.6 0 1 0-131.6 0Z" fill="#FFFFFF" p-id="1967"></path><path d="M447.3 378c-36.4 0-66-46.5-66-103.7s29.6-103.7 66-103.7 66 46.5 66 103.7-29.6 103.7-66 103.7z m0-207.2c-36.2 0-65.7 46.4-65.7 103.5s29.5 103.5 65.7 103.5S513 331.3 513 274.2s-29.5-103.4-65.7-103.4z" p-id="1968"></path><path d="M499.2 293.6c0 19.3-8.6 34.8-19.4 34.8s-19.4-15.5-19.4-34.8c0-19.3 8.6-34.8 19.4-34.8s19.4 15.5 19.4 34.8z m-13.5-6.3c-4.2 0-7.5 5.9-7.5 13.2s3.3 13.2 7.5 13.2 7.5-5.9 7.5-13.2-3.3-13.2-7.5-13.2z" p-id="1969"></path><path d="M513.2 274.2a64.7 102.5 0 1 0 129.4 0 64.7 102.5 0 1 0-129.4 0Z" fill="#FFFFFF" p-id="1970"></path><path d="M577.9 376.9c-35.8 0-64.9-46.1-64.9-102.6s29.1-102.6 64.9-102.6 64.9 46.1 64.9 102.6-29.1 102.6-64.9 102.6z m0-205.1c-35.7 0-64.6 46-64.6 102.4s28.9 102.4 64.6 102.4 64.6-46 64.6-102.4-28.9-102.4-64.6-102.4z" p-id="1971"></path><path d="M545.5 258.8c10.7 0 19.4 15.5 19.4 34.8s-8.6 34.8-19.4 34.8-19.4-15.5-19.4-34.8 8.6-34.8 19.4-34.8zM532 300.4c0 7.2 3.3 13.2 7.5 13.2s7.5-5.9 7.5-13.2-3.3-13.2-7.5-13.2c-4.2 0.1-7.5 5.9-7.5 13.2z" p-id="1972"></path><path d="M538.6 364.1c0 14-11.6 25.4-26 25.4s-26-11.4-26-25.4c0-14 11.6-25.4 26-25.4 14.3-0.1 26 11.4 26 25.4z m-34.5-16.8c-4.8 0-8.6 3.7-8.6 8.4s3.8 8.4 8.6 8.4 8.6-3.7 8.6-8.4-4-8.4-8.6-8.4z" fill="#FF0000" p-id="1973"></path><path d="M520.7 667.2h-16c-167.3 0-312.2-13.1-360.5-32.7-20.9-8.7-34.3-28-34.3-49.2 0-29.8 26.3-54 58.5-54v1.1c-31.7 0-57.5 23.7-57.5 52.9 0 20.6 13.2 39.6 33.6 48.1C192 652.6 340.1 666 504.7 666h16c164.5 0 312.7-13.4 360.2-32.6 20.4-8.6 33.6-27.5 33.6-48.1 0-29.2-25.8-52.9-57.5-52.9v-1.1c32.4 0 58.5 24.2 58.5 54 0 21.1-13.5 40.3-34.3 49.2-48.4 19.6-193.2 32.7-360.5 32.7z" p-id="1974"></path><path d="M520.7 667.3h-16c-167.3 0-312.2-13.1-360.6-32.7-20.9-8.7-34.4-28.1-34.4-49.3 0-29.8 26.3-54.1 58.8-54.1h0.1v1.4h-0.1c-31.6 0-57.4 23.6-57.4 52.8 0 20.6 13.2 39.5 33.5 48 47.5 19.2 195.5 32.6 360.1 32.6h16c164.5 0 312.6-13.4 360.1-32.6 20.4-8.5 33.5-27.4 33.5-48 0-29.1-25.8-52.8-57.4-52.8h-0.1v-1.4h0.1c32.4 0 58.8 24.3 58.8 54.1 0 21.2-13.5 40.4-34.4 49.3-48.5 19.6-193.3 32.7-360.6 32.7z m-8.1-0.3h8c167.3 0 312.2-13.1 360.5-32.7 20.8-8.7 34.3-28 34.3-49 0-29.6-26.2-53.7-58.3-53.9v0.9c31.7 0.1 57.5 23.8 57.5 53 0 20.8-13.2 39.7-33.7 48.2-47.5 19.2-195.6 32.6-360.2 32.6h-16c-164.5 0-312.7-13.4-360.2-32.6-20.5-8.6-33.7-27.6-33.7-48.2 0-29.2 25.8-53 57.5-53v-0.9c-32.1 0.1-58.3 24.2-58.3 53.9 0 21.1 13.4 40.2 34.3 49 48.1 19.7 193 32.7 360.3 32.7h8z" p-id="1975"></path><path d="M850.5 643.7c-69.1 14.5-190.8 24.1-329.6 24.1h-16.6c-138.7 0-260.5-9.6-329.6-24.1l0.1-0.5c66.6 151.8 193 254.3 337.9 254.3S784 795 850.4 643.2" fill="#ED1C24" p-id="1976"></path><path d="M681.3 847.8c0-63.6-43.3-115.3-96.6-115.3-28.6 0-54.3 14.9-72.1 38.4-17.7-23.6-43.4-38.4-72.1-38.4-53.3 0-96.5 51.6-96.6 115.3l-0.1 0.1c51 31.8 108.2 49.6 168.7 49.6s117.6-17.8 168.6-49.6" fill="#F7931E" p-id="1977"></path><path d="M512.1 389.6h1.1v277h-1.1z" p-id="1978"></path><path d="M885 936.7H140.3c-2.6 0-4.6-2.1-4.6-4.6V923c0-2.6 2.1-4.6 4.6-4.6h744.6c2.6 0 4.6 2.1 4.6 4.6v9.2c0.1 2.4-2 4.5-4.5 4.5z" fill="#ED1C24" p-id="1979"></path><path d="M128.507 348.372l0.633-2.002 278.165 87.802-0.632 2.002zM128.492 630.556l278.186-87.422 0.63 2.004-278.186 87.422zM128.8 488.6H407v2.1H128.8z" p-id="1980"></path><path d="M617.334 434.034l278.194-87.744 0.632 2.003-278.194 87.743zM617.382 545.224l0.63-2.003L896.17 630.7l-0.63 2.003zM617.7 488.6h278.2v2.1H617.7z" p-id="1981"></path></svg>